<svg width="107" height="25" viewBox="0 0 107 25" fill="none" xmlns="http://www.w3.org/2000/svg">
<path fill-rule="evenodd" clip-rule="evenodd" d="M7.70577 11.1991L5.80753 10.5354C5.01107 10.323 4.82523 9.94465 4.82523 9.62606C4.83411 9.51146 4.86633 9.39987 4.91992 9.29817C4.97351 9.19648 5.04733 9.10681 5.13685 9.0347C5.22637 8.96258 5.32969 8.90956 5.44046 8.87885C5.55123 8.84815 5.66712 8.8404 5.78099 8.85613C6.18585 8.85613 6.84957 9.01544 7.10842 10.0774L10.7124 9.20127C10.2611 6.87826 8.2832 5.33179 5.56196 5.33179C2.84071 5.33179 0.331859 6.87827 0.331859 9.54642C0.331859 11.3318 1.3208 12.865 3.65045 13.6548L5.6416 14.4048C6.36506 14.6172 6.52435 14.9889 6.52435 15.281C6.52435 15.8717 5.98674 16.1637 5.34957 16.1637C4.94124 16.1574 4.54751 16.0109 4.23448 15.7486C3.92146 15.4863 3.7082 15.1243 3.63054 14.7234L0 15.7123C0.42478 18.4336 2.5885 19.6947 5.44249 19.6947C8.6748 19.6947 11.0708 18.042 11.0708 15.2345C11.0907 12.6659 9.03984 11.6305 7.70577 11.1991Z" fill="#7000F6"/>
<path fill-rule="evenodd" clip-rule="evenodd" d="M20.7544 5.30518C18.3517 5.30518 17.0442 6.63261 16.938 6.87818H16.8584V5.55075H12.2588V24.4999H16.9048V18.1216H16.9845C17.0907 18.3605 18.3982 19.6946 20.8008 19.6946C23.9203 19.6946 27.3916 17.345 27.3916 12.4866C27.3916 7.62819 23.8739 5.30518 20.7544 5.30518ZM19.792 15.6326C19.1694 15.6551 18.5543 15.4911 18.0256 15.1615C17.4968 14.832 17.0787 14.352 16.8247 13.7831C16.5707 13.2142 16.4924 12.5824 16.6 11.9688C16.7076 11.3551 16.9961 10.7876 17.4284 10.339C17.8608 9.89049 18.4173 9.58136 19.0266 9.45131C19.6359 9.32125 20.2701 9.37625 20.8479 9.60917C21.4258 9.8421 21.9208 10.2424 22.2696 10.7586C22.6183 11.2749 22.8049 11.8835 22.8053 12.5065C22.8302 12.914 22.7702 13.3222 22.6291 13.7052C22.488 14.0883 22.2689 14.4378 21.9856 14.7317C21.7023 15.0256 21.361 15.2575 20.9834 15.4126C20.6058 15.5677 20.2001 15.6426 19.792 15.6326Z" fill="#7000F6"/>
<path fill-rule="evenodd" clip-rule="evenodd" d="M38.6815 6.87818H38.6019C38.4957 6.63925 37.1881 5.30518 34.7589 5.30518C31.666 5.30518 28.1948 7.65472 28.1948 12.5065C28.1948 17.3583 31.666 19.7145 34.7589 19.7145C37.1881 19.7145 38.4957 18.3871 38.6019 18.1415H38.6815V19.4689H43.3275V5.57068H38.6815V6.87818ZM35.7479 15.6326C35.1262 15.6498 34.5135 15.4811 33.9882 15.1482C33.4629 14.8153 33.0488 14.3333 32.7989 13.7638C32.549 13.1943 32.4747 12.5632 32.5854 11.9513C32.6961 11.3393 32.9868 10.7742 33.4204 10.3284C33.8539 9.88248 34.4106 9.57609 35.0193 9.44831C35.6279 9.32053 36.2608 9.37718 36.8371 9.61104C37.4134 9.8449 37.9068 10.2453 38.2543 10.7611C38.6017 11.2769 38.7875 11.8846 38.7877 12.5065C38.8088 12.9153 38.7453 13.324 38.6012 13.7071C38.457 14.0902 38.2353 14.4395 37.95 14.7329C37.6646 15.0264 37.3217 15.2578 36.9428 15.4126C36.5639 15.5674 36.1571 15.6423 35.7479 15.6326Z" fill="#7000F6"/>
<path fill-rule="evenodd" clip-rule="evenodd" d="M51.1727 14.113V9.20145H54.1064V5.57093H51.1727V2.02002H46.5267V5.57093H44.4493V9.20145H46.5533V14.8032C46.5533 18.2745 48.5444 19.6085 51.332 19.6085C52.3741 19.6085 53.6285 19.4227 54.1595 18.832V15.3408C53.7304 15.4789 53.2828 15.5505 52.832 15.5532C51.5444 15.5532 51.1727 14.7501 51.1727 14.113Z" fill="#7000F6"/>
<path fill-rule="evenodd" clip-rule="evenodd" d="M62.0376 9.44022C62.5635 9.46241 63.077 9.60645 63.5377 9.861C63.9985 10.1155 64.3937 10.4737 64.6924 10.9071L68.011 8.71679C67.4073 7.66956 66.5359 6.80173 65.4862 6.20225C64.4365 5.60276 63.2463 5.29318 62.0376 5.30527C58.3008 5.30527 54.5973 7.78758 54.5973 12.4801C54.5973 17.1725 58.3008 19.7146 62.0376 19.7146C63.245 19.7159 64.4317 19.401 65.4797 18.8013C66.5276 18.2016 67.4004 17.3381 68.011 16.2964L64.6924 14.1128C64.3937 14.5462 63.9985 14.9043 63.5377 15.1589C63.077 15.4134 62.5635 15.5574 62.0376 15.5796C61.2481 15.5429 60.5032 15.2035 59.9575 14.6318C59.4118 14.0601 59.1073 13.3002 59.1073 12.5099C59.1073 11.7196 59.4118 10.9597 59.9575 10.3881C60.5032 9.81642 61.2481 9.47694 62.0376 9.44022Z" fill="#7000F6"/>
<path fill-rule="evenodd" clip-rule="evenodd" d="M77.7479 5.30531C76.9849 5.27172 76.2254 5.42678 75.5366 5.75672C74.8477 6.08666 74.2509 6.58128 73.7988 7.19689V0.5H69.186V19.4491H73.7988V12.0819C73.7988 10.6416 74.4625 9.38719 76.0156 9.38719C77.5687 9.38719 78.2855 10.6416 78.2855 12.0819V19.4491H82.9316V11.2788C82.8984 7.05089 80.5488 5.30531 77.7479 5.30531Z" fill="#7000F6"/>
<path fill-rule="evenodd" clip-rule="evenodd" d="M104.374 1.81641H88.9624V9.1173L90.6349 10.8364L86.2345 15.2169L90.6349 19.5842H97.2721L98.9381 17.9315L99.5288 19.5842H106.996V4.41153L104.374 1.81641ZM103.664 16.312H98.9248V11.447L91.75 18.5355L88.4314 15.2169L95.5929 8.13501H90.6681V3.48899H103.664V16.312Z" fill="#7000F6"/>
</svg>
